<?xml version="1.0" encoding="utf-8"?>
<svg height="24px" viewBox="0 -960 960 960" width="24px" fill="#e8eaed" xmlns="http://www.w3.org/2000/svg">
  <defs/>
  <path d="M 240 -320 L 719.006 -320 L 719.006 -640 L 240 -640 L 240 -320 Z M 160 -160 C 138 -160 119.167 -167.833 103.5 -183.5 C 87.833 -199.167 80 -218 80 -240 L 80 -720 C 80 -742 87.833 -760.833 103.5 -776.5 C 119.167 -792.167 138 -800 160 -800 L 800 -800 C 822 -800 840.833 -792.167 856.5 -776.5 C 872.167 -760.833 880 -742 880 -720 L 880 -240 C 880 -218 872.167 -199.167 856.5 -183.5 C 840.833 -167.833 822 -160 800 -160 L 160 -160 Z M 800 -720 L 160 -720 L 160 -240 L 800 -240 L 800 -720 Z M 160 -720 L 160 -240 L 160 -720 Z"/>
</svg>