<?xml version="1.0" encoding="utf-8"?>
<svg height="24px" viewBox="0 -960 960 960" width="24px" fill="#e8eaed" xmlns="http://www.w3.org/2000/svg">
  <defs/>
  <path d="M 792 -56 L 480 -368 L 480 -160 L 280 -360 L 120 -360 L 120 -600 L 248 -600 L 56 -792 L 112 -848 L 848 -112 L 792 -56 Z M 650 -422 L 560 -512 L 560 -642 C 591.333 -627.333 615.833 -605.333 633.5 -576 C 651.167 -546.667 660 -514.667 660 -480 C 660 -470 659.167 -460.167 657.5 -450.5 C 655.833 -440.833 653.333 -431.333 650 -422 Z M 480 -592 L 376 -696 L 480 -800 L 480 -592 Z M 400 -354 L 400 -448 L 328 -520 L 200 -520 L 200 -440 L 314 -440 L 400 -354 Z M 364 -484 Z"/>
</svg>