<?xml version="1.0" encoding="utf-8"?>
<svg height="24px" viewBox="0 -960 960 960" width="24px" fill="#e8eaed" xmlns="http://www.w3.org/2000/svg">
  <defs/>
  <path d="M 120 -360 L 120 -600 L 280 -600 L 480 -800 L 480 -160 L 280 -360 L 120 -360 Z M 560 -320 L 560 -642 C 591.333 -627.333 615.833 -605.333 633.5 -576 C 651.167 -546.667 660 -514.667 660 -480 C 660 -446 651.167 -414.5 633.5 -385.5 C 615.833 -356.5 591.333 -334.667 560 -320 Z M 400 -606 L 314 -520 L 200 -520 L 200 -440 L 314 -440 L 400 -354 L 400 -606 Z M 300 -480 Z"/>
</svg>